<svg xmlns="http://www.w3.org/2000/svg" viewBox="0 0 960 540" role="img" aria-label="Qingmao clan school courtyard atmosphere">
  <defs>
    <linearGradient id="sky" x1="0" x2="1" y1="0" y2="1">
      <stop offset="0" stop-color="#10141b"/>
      <stop offset="0.58" stop-color="#17221f"/>
      <stop offset="1" stop-color="#101014"/>
    </linearGradient>
    <radialGradient id="moon" cx="0.24" cy="0.18" r="0.32">
      <stop offset="0" stop-color="#d8c17a" stop-opacity="0.68"/>
      <stop offset="1" stop-color="#d8c17a" stop-opacity="0"/>
    </radialGradient>
    <filter id="soft">
      <feGaussianBlur stdDeviation="3"/>
    </filter>
  </defs>
  <rect width="960" height="540" fill="url(#sky)"/>
  <rect width="960" height="540" fill="url(#moon)"/>
  <g opacity="0.34" stroke="#8fd0b3" stroke-width="5">
    <path d="M70 112 C170 80 222 154 316 108"/>
    <path d="M664 94 C744 130 802 76 902 112"/>
  </g>
  <g opacity="0.24" stroke="#d8c17a" stroke-width="2">
    <path d="M122 372 H824"/>
    <path d="M176 420 H782"/>
    <path d="M244 318 H712"/>
    <path d="M252 318 L176 420"/>
    <path d="M708 318 L782 420"/>
  </g>
  <g opacity="0.42">
    <rect x="110" y="242" width="740" height="168" rx="4" fill="#111216" stroke="#c9a96e" stroke-opacity="0.34"/>
    <path d="M132 286 H828 M132 342 H828" stroke="#c9a96e" stroke-opacity="0.16"/>
    <path d="M264 254 V398 M480 254 V398 M696 254 V398" stroke="#c9a96e" stroke-opacity="0.14"/>
  </g>
  <g opacity="0.58" filter="url(#soft)">
    <path d="M206 272 C322 246 442 244 580 270 C458 294 326 300 206 272Z" fill="#8fd0b3" fill-opacity="0.12"/>
    <path d="M374 220 C448 204 548 210 614 238 C532 250 444 250 374 220Z" fill="#e0c78a" fill-opacity="0.16"/>
  </g>
  <g opacity="0.28" stroke="#e0c78a" stroke-width="2">
    <path d="M194 224 C274 184 356 182 436 222"/>
    <path d="M508 218 C580 182 690 182 768 222"/>
  </g>
  <g opacity="0.34" fill="#07080c">
    <rect x="62" y="104" width="18" height="390"/>
    <rect x="878" y="104" width="20" height="390"/>
    <rect x="110" y="132" width="14" height="320"/>
    <rect x="828" y="132" width="14" height="320"/>
  </g>
</svg>
